# xmcd
#
# Track frame offsets:
#	150
#	12176
#	24455
#	37988
#	49063
#	62292
#	86561
#	101040
#	113845
#	127379
#	140161
#	152257
#	163021
#	174845
#	187247
#	198717
#	211688
#	223854
#	235891
#	248745
#	260399
#	274936
#	286589
#	298291
#	310943
#
# Disc length: 4296 seconds
#
# Revision: 0
# Processed by: cddbd v1.5.1PL2 Copyright (c) Steve Scherf et al.
# Submitted via: dBpowerAMP V4.0
#
DISCID=7010c619
DTITLE=Various Artist - R&B Years 1949 [CD 4)
DYEAR=1949
DGENRE=R&B
TTITLE0=Thomas, Joe - Page Boy Shuffle
TTITLE1=Hawkins, Roy - Mistreatin' Baby
TTITLE2=Witherspoon, Jimmy - In the Evening
TTITLE3=Sugar Chile Robinson - Numbers Boogie
TTITLE4=Moore's, Johnny Blazers and Billy Valentine - Walkin' Blues
TTITLE5=Jordan, Louis - Saturday Night Fish Fry
TTITLE6=Wright, Billy - Blues for My Baby
TTITLE7=Hunter, Ivory Joe - Landlord Blues
TTITLE8=Jackson, Bull Moose - Why Don't You Haul Off and Love Me?
TTITLE9=Brown, Ruth - Rockin' Blues
TTITLE10=Abernathy, Marion - Ja-Hoosey Baby
TTITLE11=Myers, Bumps - Memphis Hop
TTITLE12=Darnell, Larry - For You My Love
TTITLE13=Brown, Clarence Gatemouth - My Time is Expensive
TTITLE14=Memphis Slim - Nobody Loves Me
TTITLE15=Brown, Roy - Boogie at Midnight
TTITLE16=Vinson, Red Eddie - Somebody Done Stole My Cherry Red
TTITLE17=Davis, Eddie - Mountain Oysters
TTITLE18=Summers, J.B. - Drinkin' Beer
TTITLE19=Charles, Ray - How Long Blues
TTITLE20=Brown, Charles - Homesick Blues
TTITLE21=Mack, Eddie - Kind Loving Daddy
TTITLE22=Otis, Johnny - Thursday Night Blues
TTITLE23=Crayton, Pee Wee - Bounce Pee Wee
TTITLE24=Witherspoon, Jimmy - Big Fine Gal
EXTD=
EXTT0=
EXTT1=
EXTT2=
EXTT3=
EXTT4=
EXTT5=
EXTT6=
EXTT7=
EXTT8=
EXTT9=
EXTT10=
EXTT11=
EXTT12=
EXTT13=
EXTT14=
EXTT15=
EXTT16=
EXTT17=
EXTT18=
EXTT19=
EXTT20=
EXTT21=
EXTT22=
EXTT23=
EXTT24=
PLAYORDER=
